{"title":"Whiteout.2009.iTALiAN.MD.TS.XviD-SiLENT[survivalofmisa].avi","uid":5108846,"size":728932352,"categoryP":"video","categoryS":"movies","magnet":"?xt=urn:btih:41105cc31d8f78277816a8cae1424e6eb2c0fe2d&amp;dn=Whiteout.2009.iTALiAN.MD.TS.XviD-SiLENT%5Bsurvivalofmisa%5D.avi&amp;tr=udp%3A%2F%2Ftracker.openbittorrent.com%3A80&amp;tr=udp%3A%2F%2Fopen.demonii.com%3A1337&amp;tr=udp%3A%2F%2Ftracker.coppersurfer.tk%3A6969&amp;tr=udp%3A%2F%2Fexodus.desync.com%3A6969","seeders":0,"leechers":0,"uploader":"misafor","files":1,"time":1254598847,"description":"more info:\n\n    General\n    Complete name                    : Whiteout.2009.iTALiAN.MD.TS.XviD-SiLENT[survivalofmisa].avi\n    Format                           : AVI\n    Format/Info                      : Audio Video Interleave\n    File size                        : 695 MiB\n    Duration                         : 1h 34mn\n    Overall bit rate                 : 1 032 Kbps\n    Writing application              : VirtualDubMod 1.5.10.2 (build 2542/release)\n    Writing library                  : VirtualDubMod build 2542/release\n\n    Video\n    ID                               : 0\n    Format                           : MPEG-4 Visual\n    Format profile                   : AdvancedSimple@L5\n    Format settings, BVOP            : No\n    Format settings, QPel            : No\n    Format settings, GMC             : No warppoints\n    Format settings, Matrix          : Default (MPEG)\n    Codec ID                         : XVID\n    Codec ID/Hint                    : XviD\n    Duration                         : 1h 34mn\n    Bit rate                         : 898 Kbps\n    Width                            : 608 pixels\n    Height                           : 240 pixels\n    Display aspect ratio             : 2.533\n    Frame rate                       : 25.000 fps\n    Resolution                       : 24 bits\n    Colorimetry                      : 4:2:0\n    Scan type                        : Progressive\n    Bits/(Pixel*Frame)               : 0.246\n    Stream size                      : 605 MiB (87%)\n    Writing library                  : XviD 1.2.1 (UTC 2008-12-04)\n\n    Audio\n    ID                               : 1\n    Format                           : MPEG Audio\n    Format version                   : Version 1\n    Format profile                   : Layer 3\n    Codec ID                         : 55\n    Codec ID/Hint                    : MP3\n    Duration                         : 1h 34mn\n    Bit rate mode                    : Variable\n    Bit rate                         : 122 Kbps\n    Nominal bit rate                 : 128 Kbps\n    Channel(s)                       : 2 channels\n    Sampling rate                    : 48.0 KHz\n    Resolution                       : 16 bits\n    Stream size                      : 81.9 MiB (12%)\n    Alignment                        : Aligned on interleaves\n    Interleave, duration             : 24 ms (0.60 video frame)\n    Interleave, preload duration     : 520 ms\n    Writing library                  : LAME3.99a\n    Encoding settings                : -m j -V 4 -q 3 -lowpass 17 --abr 128\n\nmore info: Survivalofmisa.altervista.","torrent":{"xt":"urn:btih:41105cc31d8f78277816a8cae1424e6eb2c0fe2d","amp;dn":"Whiteout.2009.iTALiAN.MD.TS.XviD-SiLENT%5Bsurvivalofmisa%5D.avi","amp;tr":["udp%3A%2F%2Ftracker.openbittorrent.com%3A80","udp%3A%2F%2Fopen.demonii.com%3A1337","udp%3A%2F%2Ftracker.coppersurfer.tk%3A6969","udp%3A%2F%2Fexodus.desync.com%3A6969"],"infoHash":"41105cc31d8f78277816a8cae1424e6eb2c0fe2d","infoHashBuffer":{"type":"Buffer","data":[65,16,92,195,29,143,120,39,120,22,168,202,225,66,78,110,178,192,254,45]},"announce":[],"urlList":[]}}